<?xml version="1.0" standalone="no"?>
<svg xmlns="http://www.w3.org/2000/svg" viewBox="0 0 76 72" width="76" height="72"><g fill="#604d1b" color="#604d1b" transform="translate(15.98 0) scale(0.44) "><svg width="100.0" height="100.0" x="0.0" y="0.0" viewBox="0 0 100 100"><title></title><path d="M63.75,15.54l-.51-.13-.5-.08-.2,0a91.24,91.24,0,0,0-9.63-.84,16.89,16.89,0,0,0-2.71-2.73c.09.39,1.57,2.28,1.64,2.71l-1.62,0c-1.37,0-3.09,0-4.44,0a10.83,10.83,0,0,0-2.92-3.08c-.07,0,1.84,3.15,1.84,3.15s-2,.25-2.93.35a26.39,26.39,0,0,0-3.38.62c-1.16-.86-1.87-3-3-4,.26,1.21,1.31,3,1.46,4.41a36.3,36.3,0,0,0-5.8,2.34C29.55,17,29,15.06,27.23,13.61l2.53,5.33a39.7,39.7,0,0,0-4.49,2.8c-.55-.23-4.09-5.73-4.49-5.82A54.16,54.16,0,0,0,23.62,22c-2.18.3-3.79.34-5.8.76-.45-.27-.93-2-2.38-3.47,1.31,2.61,1.16,3.51,1.16,3.51s-6.57,1-9.29,2c1.64,0,7-.81,9.71-1.14C17.09,25,15.51,27,15.58,27a7.71,7.71,0,0,0,2.51-3.27h4.59c-.68.56-1.33,1.14-2,1.76-.1.08-.19.18-.29.27a36,36,0,0,0-6,7.41c-3.67-.91-4.35-1.63-12.12-6.28A40,40,0,0,1,34.32,8c18.3-.82,26.32,4.84,29.34,7.45Z"></path><path d="M22.68,23.73l-2,1.76C21.35,24.87,22,24.29,22.68,23.73Z"></path><path d="M82.62,20.16,73,20.44c-.74.77-.33,1.26-.58,1.93-2.49.79-2.53,2.53-3.08,4.62a3.71,3.71,0,0,1-.68,1.41,3.34,3.34,0,0,0-2.09-.56,8.63,8.63,0,0,0-2.26.32c0-1.51.38-4.78.44-5.27a.28.28,0,0,0,0-.06l.27,0c.86-.19,3.48-.8,3-1.41a1,1,0,0,0-.51-.07,16.46,16.46,0,0,0-2.89.58l0,0c-.34-.21-3.7-2.27-5.68-2.63a42.63,42.63,0,0,1,4.24,3.22c-1.28.52-2.86,1.2-4.76,2.06l-.12,0c-1.92-1.37-3.65-3.86-8.3-5.71,2.32,2.08,5.74,4.32,7,6.3l-.09.11q-2,.9-4.38,2.06a12,12,0,0,0-1.34.58c-.38-.13-5.51-5.29-10.47-8.14,0,0,7.91,7.65,9.16,8.85q-2.31,1.14-5,2.49a29.58,29.58,0,0,0-13.46-8.21c2.19.87,10.54,6.69,11.83,8.84q-.37.32-.75.6h0c-1.21.62-2.46,1.28-3.77,2l-2,1.1a27.84,27.84,0,0,0-11.72-7.85c0,.06,7,4.65,8.12,6,.45.56,2.29,2.3,2.1,2.61l-.06.07c-1.94,1.1-3.73,2.19-5.39,3.24l-1.45-1.11a39.23,39.23,0,0,0-9-4.36c1.89,1.14,8.34,5.15,9.42,6.12-2,1.34-3.86,2.63-5.48,3.88-1.51-.85-6.11-3.33-8.18-3.4,1.47.26,6.84,3.61,7.35,4A18.72,18.72,0,0,0,20.69,46l-.08.07-2.44,2.15a30.12,30.12,0,0,0-5-1.83c.12.16,3.6,2,4.16,2.58h0C12.16,54,11,57.76,11,57.76c-.08.18-.13.29-.14.33l.21-.3a48.39,48.39,0,0,1,6.16-7.24,28.46,28.46,0,0,1,1.18,5l-.28-5.87q1.93-1.87,4.63-4c.22,3.25.71,8.66.72,8.5a52.93,52.93,0,0,0,.15-9.18c1.63-1.27,3.24-2.42,5.32-3.8.39,3.14.8,10.54.8,10.54a45.89,45.89,0,0,0,.09-11.12c1.66-1.08,4-2.54,6-3.66.9,3.88,2.06,8.83,1.85,13.1.65-3.37-.1-10.8-.82-13.54a3,3,0,0,1,.35-.27c.62-.35,1.26-.69,1.92-1q2.29-1.21,4.39-2.29a47.12,47.12,0,0,1,1.29,12.35,41.44,41.44,0,0,0,0-13c2.09-1.06,4-2,5.79-2.9C51,31.77,51.7,38,51.92,41.09c-.68.49-1.4,1-2.16,1.46A43.41,43.41,0,0,0,37.91,53.83a66,66,0,0,1-10.25,3.35C15.41,60,10.88,61.1,8.45,61.1,8.52,59,11,46.23,11.72,42.64,15,27.33,31.25,17.05,41.9,15.87,58.11,14.06,72,18.24,73.33,18.43c2,1,6.7-.47,9.44-1C83.31,19.16,83.21,20.16,82.62,20.16Z"></path><path d="M58.94,33.77a23.89,23.89,0,0,1-6.61,7c-.44-2.29-.16-8.57-.8-11.92,2.12-1,4-1.92,5.67-2.69C57.77,27.32,58.52,31.51,58.94,33.77Z"></path><path d="M63.66,23.33v4.89l-.14.2A5.58,5.58,0,0,0,60,31.5a13.38,13.38,0,0,1-.79,1.79,73.67,73.67,0,0,0-.8-7.64C60.41,24.74,62.35,23.87,63.66,23.33Z"></path><ellipse cx="79.34" cy="34.11" rx="2.86" ry="2.34"></ellipse><ellipse cx="85.24" cy="36.89" rx="2.25" ry="1.91"></ellipse><ellipse cx="74.73" cy="82.86" rx="1.99" ry="2.86" transform="translate(-14.29 150.15) rotate(-85.04)"></ellipse><ellipse cx="86.88" cy="41.23" rx="1.65" ry="2.43" transform="translate(38.29 124.21) rotate(-85.04)"></ellipse><ellipse cx="79.46" cy="38.87" rx="1.65" ry="3.56" transform="translate(33.87 114.67) rotate(-85.04)"></ellipse><ellipse cx="86.93" cy="46.19" rx="2.6" ry="3.73" transform="translate(25.48 123.1) rotate(-79.36)"></ellipse><ellipse cx="78.48" cy="43.53" rx="2.69" ry="4.25" transform="translate(31.09 119.75) rotate(-87.15)"></ellipse><path d="M82.38,49.46c-.26,1.56-2.17,2.69-4.6,2.6s-4.34-1.47-4.34-3c0-3.3,2-1.82,4.51-1.73S82.81,46.6,82.38,49.46Z"></path><path d="M82.46,54.93c-.26,1.3-2.34,2.25-5.12,2.17s-4.86-1.3-4.86-2.69c0-2.78,2.17-1.56,4.94-1.39S83,52.59,82.46,54.93Z"></path><path d="M83.07,59.78c-.17,1.3-2.34,2.52-5.29,2.69s-5.38-.87-5.55-2.17c-.35-2.78,2.25-1.73,5.2-1.91S83.33,57.36,83.07,59.78Z"></path><path d="M82.64,65c-.09,1.47-2.08,2.95-5,3.21s-5.29-.61-5.55-2.08c-.52-3,2.08-2.08,4.94-2.43S82.73,62.39,82.64,65Z"></path><path d="M82.2,70.37c-.09,1.47-2.08,2.95-5,3.21s-5.29-.61-5.55-2.08c-.52-3,2.08-2.08,4.94-2.43C79.52,68.89,82.29,67.76,82.2,70.37Z"></path><path d="M80.21,76.09c0,1.47-1.56,2.86-3.73,3.12S72.4,78.43,72.14,77c-.52-3,1.56-2,3.73-2.25S80.12,73.4,80.21,76.09Z"></path><ellipse cx="87.01" cy="51.62" rx="2.17" ry="3.73" transform="translate(20.21 127.61) rotate(-79.36)"></ellipse><ellipse cx="87.88" cy="56.72" rx="2.17" ry="3.38" transform="translate(15.91 132.61) rotate(-79.36)"></ellipse><ellipse cx="86.03" cy="67.4" rx="2.08" ry="2.95" transform="translate(3.9 139.51) rotate(-79.36)"></ellipse><ellipse cx="87.08" cy="62.28" rx="2.6" ry="2.95" transform="translate(9.79 136.37) rotate(-79.36)"></ellipse><ellipse cx="84.98" cy="72.66" rx="2.34" ry="2.95" transform="translate(-22.17 104.61) rotate(-57.13)"></ellipse><ellipse cx="68.5" cy="68.8" rx="2.95" ry="2.34" transform="translate(-17.35 23.47) rotate(-17.29)"></ellipse><ellipse cx="68.59" cy="63.25" rx="3.56" ry="2.34" transform="translate(-15.7 23.24) rotate(-17.29)"></ellipse><ellipse cx="68.5" cy="57.79" rx="3.56" ry="2.34" transform="translate(-14.08 22.97) rotate(-17.29)"></ellipse><ellipse cx="69.9" cy="47.4" rx="3.21" ry="2.43" transform="translate(-14.52 49.77) rotate(-35.75)"></ellipse><ellipse cx="71.46" cy="41.73" rx="2.43" ry="1.91" transform="translate(-10.92 49.61) rotate(-35.75)"></ellipse><ellipse cx="73.72" cy="37.41" rx="2.43" ry="1.91" transform="translate(-7.96 50.12) rotate(-35.75)"></ellipse><ellipse cx="69.02" cy="52.67" rx="2.95" ry="1.91" transform="translate(-12.54 22.89) rotate(-17.29)"></ellipse><ellipse cx="70.32" cy="79.12" rx="1.82" ry="2.52" transform="matrix(0.75, -0.67, 0.67, 0.75, -34.83, 66.95)"></ellipse><circle cx="83.42" cy="77.41" r="2.08" transform="translate(-26.87 105.45) rotate(-57.13)"></circle><circle cx="80.14" cy="80.87" r="2.08" transform="translate(-31.28 104.28) rotate(-57.13)"></circle><circle cx="68.94" cy="74.14" r="2.08" transform="translate(-30.74 91.8) rotate(-57.13)"></circle><path d="M35,90.23c-2.17,1.47-4.68-.09-1.56-8.67A110.33,110.33,0,0,1,49.34,53.19c4.25-5.55,13.44-13.62,13.44-13.62A39.49,39.49,0,0,0,57.4,67.42S43.35,84.5,35,90.23Z"></path><path d="M61.13,79.82s-.78-2.34-2.08-5.29A25.91,25.91,0,0,1,57.31,69s-9.19,10.67-14,15.52a40.51,40.51,0,0,1-9.11,7C49.51,91.53,61.13,79.82,61.13,79.82Z"></path><path d="M63,82.85,61.65,80.6s-3.12,2.69-4.42,3.56c-1.47,1-6.5,3.56-6.5,3.56C56.19,85.8,63,82.85,63,82.85Z"></path><path d="M91.14,29.78c.17-1.3-1.21-8.93-8.59-7.46a8.75,8.75,0,0,1,1.13-3.9c1.56-3,2.69-4.68-.87-5.46s-3.3,1-3.3,5.2a8.64,8.64,0,0,1-1,4c-3.12-.26-7.81,0-8.24,4.25C69.54,33.16,55.84,42.87,58.44,66,60.26,82.68,71.1,93.43,77.35,93.43c5.2,0,15.26-9.28,19.25-30.87C99.38,47.56,90.7,33.42,91.14,29.78ZM93,59.61C91.4,76,83.42,88.58,75.09,87.8S61.39,73.05,63,56.66s9.63-29,17.87-28.19S94.61,43.22,93,59.61Z"></path><path d="M62.17,38.45c2.34-2.52,4.68-6.85,5.72-8.33,1.13-1.73-5.55-1.21-6.68,1.82C60,35.33,57.14,39.4,50.46,43.65s-10.93,9.54-15.7,17.17-2.69,21.68-2.69,21.68C43.27,54.15,53.33,47.82,62.17,38.45Z"></path></svg></g><path fill="#f19704" fill-rule="nonzero" d="M15.65 4.73L15.65 4.73Q15.65 6.05 14.99 7.25Q14.33 8.45 13.21 9.35Q12.10 10.25 10.60 10.78Q9.10 11.30 7.42 11.30L7.42 11.30Q6.82 11.30 6.47 11.15Q6.12 10.99 5.69 10.54L5.69 10.54Q4.49 13.15 3.73 15.35Q2.98 17.54 2.54 19.61L2.54 19.61Q1.63 19.39 1.06 18.85Q0.48 18.31 0 17.50L0 17.50Q0.24 17.04 0.58 16.30Q0.91 15.55 1.39 14.46Q1.87 13.37 2.51 11.84Q3.14 10.32 4.01 8.28L4.01 8.28Q4.39 7.34 4.68 6.65Q4.97 5.95 5.18 5.34Q5.40 4.73 5.58 4.13Q5.76 3.53 5.95 2.81L5.95 2.81Q4.82 3.17 3.88 3.65Q2.93 4.13 2.30 4.66L2.30 4.66Q2.09 4.51 1.86 4.22Q1.63 3.94 1.44 3.59Q1.25 3.24 1.10 2.88Q0.96 2.52 0.94 2.23L0.94 2.23Q1.63 1.75 2.66 1.34Q3.70 0.94 4.87 0.64Q6.05 0.34 7.31 0.17Q8.57 0 9.72 0L9.72 0Q11.09 0 12.19 0.35Q13.30 0.70 14.06 1.32Q14.83 1.94 15.24 2.81Q15.65 3.67 15.65 4.73ZM11.38 1.85L11.38 1.85Q10.46 1.85 9.50 1.99L9.50 1.99L9.79 2.42Q9.55 2.74 9.19 3.36Q8.83 3.98 8.40 4.86Q7.97 5.74 7.45 6.82Q6.94 7.90 6.36 9.10L6.36 9.10Q8.23 9.10 9.77 8.75Q11.30 8.40 12.40 7.79Q13.49 7.18 14.10 6.36Q14.71 5.54 14.71 4.61L14.71 4.61Q14.71 3.36 13.87 2.60Q13.03 1.85 11.38 1.85ZM22.32 7.97L22.32 7.97Q22.56 7.97 22.88 8.05Q23.21 8.14 23.47 8.27Q23.74 8.40 23.92 8.54Q24.10 8.69 24.10 8.81L24.10 8.81Q23.62 9.82 23.21 10.84Q22.80 11.86 22.51 12.79Q22.22 13.73 22.07 14.54Q21.91 15.36 21.91 15.96L21.91 15.96Q21.91 16.63 22.06 17.08Q22.20 17.52 22.54 17.71L22.54 17.71Q22.25 17.90 21.79 18.02Q21.34 18.14 20.98 18.14L20.98 18.14Q19.68 18.14 19.68 16.37L19.68 16.37Q19.68 15.00 20.59 12.62L20.59 12.62Q20.11 13.73 19.49 14.70Q18.86 15.67 18.22 16.42Q17.57 17.16 16.91 17.63Q16.25 18.10 15.70 18.19L15.70 18.19Q14.81 18.14 14.26 17.34Q13.70 16.54 13.70 15.29L13.70 15.29Q13.70 13.94 14.28 12.46Q14.86 10.97 15.76 9.70Q16.66 8.42 17.71 7.57Q18.77 6.72 19.75 6.67L19.75 6.67Q19.99 6.74 20.29 6.96Q20.59 7.18 20.87 7.46Q21.14 7.75 21.34 8.05Q21.53 8.35 21.55 8.57L21.55 8.57Q20.59 8.71 19.57 9.50Q18.55 10.30 17.72 11.41Q16.90 12.53 16.37 13.80Q15.84 15.07 15.84 16.18L15.84 16.18Q15.84 16.63 16.18 16.75L16.18 16.75Q16.87 16.61 17.78 15.56Q18.70 14.52 19.99 12.34L19.99 12.34Q20.23 11.90 20.53 11.38Q20.83 10.85 21.14 10.27Q21.46 9.70 21.76 9.11Q22.06 8.52 22.32 7.97ZM29.21 6.02L29.21 6.02Q29.83 6.22 30.38 6.88Q30.94 7.54 31.20 8.33L31.20 8.33Q30.94 8.98 30.38 9.89Q29.83 10.80 29.28 11.75Q28.73 12.70 28.28 13.55Q27.84 14.40 27.77 14.95L27.77 14.95Q28.15 14.54 28.62 14.00Q29.09 13.46 29.53 12.92Q29.98 12.38 30.36 11.94Q30.74 11.50 30.96 11.28L30.96 11.28Q31.42 10.80 32.04 10.16Q32.66 9.53 33.35 8.96Q34.03 8.40 34.73 8.00Q35.42 7.61 36 7.61L36 7.61Q36.62 7.61 37.04 8.03Q37.46 8.45 37.70 8.90L37.70 8.90Q37.70 8.95 37.52 9.04Q37.34 9.12 37.01 9.50L37.01 9.50Q36.67 9.94 36.25 10.69Q35.83 11.45 35.44 12.32Q35.04 13.20 34.78 14.11Q34.51 15.02 34.51 15.77L34.51 15.77Q34.51 16.37 34.67 16.54Q34.82 16.70 35.11 16.70L35.11 16.70Q35.38 16.70 35.66 16.58Q35.95 16.46 36.12 16.46L36.12 16.46Q36.22 16.51 36.28 16.67Q36.34 16.82 36.34 16.94L36.34 16.94Q36.14 17.11 35.88 17.28Q35.62 17.45 35.33 17.59Q35.04 17.74 34.76 17.83Q34.49 17.93 34.27 17.93L34.27 17.93Q33.58 17.93 33.13 17.72Q32.69 17.52 32.44 17.18Q32.18 16.85 32.09 16.38Q31.99 15.91 31.99 15.38L31.99 15.38Q31.99 15.10 32.04 14.74Q32.09 14.38 32.23 13.88Q32.38 13.39 32.64 12.71Q32.90 12.02 33.31 11.06L33.31 11.06Q33.26 11.06 32.66 11.40Q32.06 11.74 31.37 12.43L31.37 12.43Q30.24 13.51 29.34 14.57Q28.44 15.62 27.50 16.92L27.50 16.92Q26.98 17.66 26.58 18.18Q26.18 18.70 25.90 18.86L25.90 18.86Q25.39 18.58 25.15 18.06Q24.91 17.54 24.79 16.99L24.79 16.99Q24.79 16.54 24.92 15.84Q25.06 15.14 25.28 14.29Q25.51 13.44 25.85 12.50Q26.18 11.57 26.59 10.63L26.59 10.63Q27.50 8.52 28.26 7.32Q29.02 6.12 29.21 6.02ZM41.06 8.47L39.70 8.47Q39.58 8.33 39.48 7.86Q39.38 7.39 39.38 7.06L39.38 7.06Q40.01 7.10 40.58 7.14Q41.16 7.18 41.64 7.20L41.64 7.20Q42 6.48 42.42 5.77Q42.84 5.06 43.24 4.48Q43.63 3.89 43.98 3.48Q44.33 3.07 44.52 2.95L44.52 2.95Q44.76 2.95 45.13 3.04Q45.50 3.12 45.89 3.25Q46.27 3.38 46.58 3.53Q46.90 3.67 47.02 3.82L47.02 3.82Q46.30 4.73 45.78 5.51Q45.26 6.29 44.66 7.30L44.66 7.30Q45.14 7.30 45.64 7.27Q46.13 7.25 46.63 7.20L46.63 7.20Q46.75 7.32 46.82 7.50Q46.90 7.68 46.90 7.87L46.90 7.87Q45.72 8.30 44.04 8.35L44.04 8.35Q43.44 9.50 42.97 10.64Q42.50 11.78 42.18 12.84Q41.86 13.90 41.68 14.83Q41.50 15.77 41.50 16.51L41.50 16.51Q41.50 17.57 42.29 17.69L42.29 17.69Q43.01 17.59 43.66 17.33Q44.30 17.06 44.81 16.66L44.81 16.66Q44.95 16.87 44.98 17.02L44.98 17.02Q44.83 17.23 44.48 17.52Q44.14 17.81 43.73 18.08Q43.32 18.36 42.94 18.55Q42.55 18.74 42.36 18.77L42.36 18.77Q41.76 18.74 41.16 18.50Q40.56 18.26 40.07 17.90Q39.58 17.54 39.26 17.10Q38.95 16.66 38.95 16.22L38.95 16.22Q38.95 15.65 39.11 14.77Q39.26 13.90 39.55 12.86Q39.84 11.83 40.22 10.70Q40.61 9.58 41.06 8.47L41.06 8.47ZM45.86 17.33L45.86 17.33Q45.86 16.94 46.54 16.09Q47.21 15.24 48.32 14.15Q49.44 13.06 50.89 11.84Q52.34 10.63 53.90 9.50L53.90 9.50Q52.90 9.29 52.31 9.19Q51.72 9.10 51.36 9.10L51.36 9.10Q50.66 9.10 50.11 9.29Q49.56 9.48 49.03 9.91L49.03 9.91Q47.93 8.95 47.93 7.70L47.93 7.70Q47.93 7.32 47.95 7.25L47.95 7.25Q48.36 6.84 48.92 6.62Q49.49 6.41 50.11 6.41L50.11 6.41Q50.78 6.41 51.48 6.62Q52.18 6.84 52.85 7.09Q53.52 7.34 54.11 7.56Q54.70 7.78 55.15 7.78L55.15 7.78Q55.42 7.78 55.74 7.70Q56.06 7.63 56.28 7.51L56.28 7.51Q56.50 7.68 56.68 8.18Q56.86 8.69 56.86 9.17L56.86 9.17Q56.11 9.46 55.07 10.18Q54.02 10.90 52.94 11.83Q51.86 12.77 50.84 13.82Q49.82 14.88 49.15 15.82L49.15 15.82Q49.66 16.03 50.52 16.03L50.52 16.03Q51.07 16.03 51.65 15.94Q52.22 15.84 52.76 15.67Q53.30 15.50 53.76 15.28Q54.22 15.05 54.53 14.78L54.53 14.78Q55.66 15.50 55.66 16.90L55.66 16.90Q55.66 17.09 55.64 17.21Q55.63 17.33 55.61 17.50L55.61 17.50Q54.50 18.19 53.21 18.19L53.21 18.19Q52.56 18.19 51.91 18.06Q51.26 17.93 50.65 17.78Q50.04 17.64 49.50 17.51Q48.96 17.38 48.50 17.38L48.50 17.38Q47.35 17.38 46.63 18.46L46.63 18.46Q46.32 18.34 46.12 18.02Q45.91 17.71 45.86 17.33ZM57.94 16.06L57.94 16.06Q57.94 15.84 57.97 15.52Q58.01 15.19 58.10 14.65Q58.20 14.11 58.36 13.34Q58.51 12.58 58.75 11.50L58.75 11.50Q58.80 11.26 58.97 10.73Q59.14 10.20 59.41 9.61Q59.69 9.02 60.08 8.47Q60.48 7.92 61.03 7.66L61.03 7.66Q61.44 7.75 62.11 8.15Q62.78 8.54 63.26 9.24L63.26 9.24Q62.71 9.86 62.34 10.49Q61.97 11.11 61.67 11.78Q61.37 12.46 61.12 13.18Q60.86 13.90 60.55 14.69L60.55 14.69Q60.29 15.36 60.07 16.07Q59.86 16.78 59.83 17.30L59.83 17.30Q59.83 17.74 59.82 17.92Q59.81 18.10 59.69 18.10L59.69 18.10Q59.59 18.10 59.30 17.98Q59.02 17.86 58.72 17.60Q58.42 17.35 58.18 16.97Q57.94 16.58 57.94 16.06ZM62.52 5.64L62.52 5.64Q62.52 5.50 62.59 5.21L62.59 5.21Q62.47 5.09 62.39 4.85Q62.30 4.61 62.30 4.42L62.30 4.42Q62.30 4.20 62.36 3.83Q62.42 3.46 62.52 3.02Q62.62 2.59 62.76 2.12Q62.90 1.66 63.05 1.27L63.05 1.27Q63.34 1.27 63.76 1.43Q64.18 1.58 64.61 1.84Q65.04 2.09 65.40 2.39Q65.76 2.69 65.95 2.95L65.95 2.95Q65.69 3.22 65.26 3.68Q64.82 4.15 64.42 4.67Q64.01 5.18 63.67 5.64Q63.34 6.10 63.24 6.29L63.24 6.29Q62.95 6.24 62.74 6.04Q62.52 5.83 62.52 5.64ZM67.46 6.02L67.46 6.02Q68.09 6.22 68.64 6.88Q69.19 7.54 69.46 8.33L69.46 8.33Q69.19 8.98 68.64 9.89Q68.09 10.80 67.54 11.75Q66.98 12.70 66.54 13.55Q66.10 14.40 66.02 14.95L66.02 14.95Q66.41 14.54 66.88 14.00Q67.34 13.46 67.79 12.92Q68.23 12.38 68.62 11.94Q69 11.50 69.22 11.28L69.22 11.28Q69.67 10.80 70.30 10.16Q70.92 9.53 71.60 8.96Q72.29 8.40 72.98 8.00Q73.68 7.61 74.26 7.61L74.26 7.61Q74.88 7.61 75.30 8.03Q75.72 8.45 75.96 8.90L75.96 8.90Q75.96 8.95 75.78 9.04Q75.60 9.12 75.26 9.50L75.26 9.50Q74.93 9.94 74.51 10.69Q74.09 11.45 73.69 12.32Q73.30 13.20 73.03 14.11Q72.77 15.02 72.77 15.77L72.77 15.77Q72.77 16.37 72.92 16.54Q73.08 16.70 73.37 16.70L73.37 16.70Q73.63 16.70 73.92 16.58Q74.21 16.46 74.38 16.46L74.38 16.46Q74.47 16.51 74.53 16.67Q74.59 16.82 74.59 16.94L74.59 16.94Q74.40 17.11 74.14 17.28Q73.87 17.45 73.58 17.59Q73.30 17.74 73.02 17.83Q72.74 17.93 72.53 17.93L72.53 17.93Q71.83 17.93 71.39 17.72Q70.94 17.52 70.69 17.18Q70.44 16.85 70.34 16.38Q70.25 15.91 70.25 15.38L70.25 15.38Q70.25 15.10 70.30 14.74Q70.34 14.38 70.49 13.88Q70.63 13.39 70.90 12.71Q71.16 12.02 71.57 11.06L71.57 11.06Q71.52 11.06 70.92 11.40Q70.32 11.74 69.62 12.43L69.62 12.43Q68.50 13.51 67.60 14.57Q66.70 15.62 65.76 16.92L65.76 16.92Q65.23 17.66 64.84 18.18Q64.44 18.70 64.15 18.86L64.15 18.86Q63.65 18.58 63.41 18.06Q63.17 17.54 63.05 16.99L63.05 16.99Q63.05 16.54 63.18 15.84Q63.31 15.14 63.54 14.29Q63.77 13.44 64.10 12.50Q64.44 11.57 64.85 10.63L64.85 10.63Q65.76 8.52 66.52 7.32Q67.27 6.12 67.46 6.02Z" transform="translate(0, 52)"></path></svg>